<?xml version="1.0" encoding="UTF-8"?>
<svg width="256px" height="256px" viewBox="0 0 256 256" version="1.1" xmlns="http://www.w3.org/2000/svg" xmlns:xlink="http://www.w3.org/1999/xlink" preserveAspectRatio="xMidYMid">
    <defs>
        <linearGradient x1="98.0308675%" y1="0.160599572%" x2="58.8877062%" y2="40.7655246%" id="linearGradient-1">
            <stop stop-color="#0052CC" offset="18%"></stop>
            <stop stop-color="#2684FF" offset="100%"></stop>
        </linearGradient>
    </defs>
    <g>
        <path d="M244.657778,0 L123.363285,0 C123.363285,25.6506667 134.524952,50.2174444 155.780799,71.4733333 C177.036646,92.7291852 201.603407,103.890852 227.254074,103.890852 L256,103.890852 L256,11.3422222 C256,5.07733333 250.922667,0 244.657778,0" fill="#2684FF"></path>
        <path d="M183.058725,61.5024145 L61.7642316,61.5024145 C61.7642316,87.1530812 72.9258983,111.719859 94.1817454,132.975748 C115.437593,154.231637 140.004354,165.393304 165.655021,165.393304 L194.400947,165.393304 L194.400947,72.8446367 C194.400947,66.5797478 189.323614,61.5024145 183.058725,61.5024145" fill="url(#linearGradient-1)"></path>
        <path d="M121.459671,123.004829 L0.165178147,123.004829 C0.165178147,148.655496 11.3268449,173.222274 32.5826921,194.478163 C53.8385393,215.734052 78.4053,226.895719 104.055967,226.895719 L132.801893,226.895719 L132.801893,134.347052 C132.801893,128.082163 127.72456,123.004829 121.459671,123.004829" fill="#2684FF"></path>
    </g>
</svg> 